<?xml version="1.0" encoding="UTF-8"?><svg xmlns="http://www.w3.org/2000/svg" viewBox="0 0 872.72 244.83"><defs><style>.l{fill:#fff;}.m{fill:#020202;stroke:#000;stroke-miterlimit:10;}.n{fill:#db7b07;}</style></defs><g id="a"/><g id="b"><g id="c"><g id="d"><path class="l" d="M0,70.38C0,35.64,30.09,0,77.21,0c26.93,0,48.11,11.16,59.59,30.42l-23.16,14.4c-7.92-12.6-20-19.98-38.61-19.98-29.1,0-45.93,23.4-45.93,45.54s15.64,36.18,39.4,36.18c16.04,0,27.12-5.94,33.06-13.5l2.18-12.6h-29.7l3.76-21.6h58.01l-7.72,44.1c-12.67,17.28-32.87,28.44-61.97,28.44C30.69,131.4,0,108.36,0,70.38Z"/></g><ellipse class="m" cx="197.54" cy="80.98" rx="59.01" ry="50.98" transform="translate(-8.34 24.47) rotate(-6.94)"/><ellipse class="n" cx="197.64" cy="81.47" rx="56.57" ry="47.01" transform="translate(-12.8 43.87) rotate(-12.27)"/><path class="m" d="M231.08,67.52l-6.29-10.15s13.3-4.85,20.81-4.59l-1.52-2.45s-9.06,.86-20.58,5.3l-6.54-8.48s11.92-2.26,7.83-10.57l-5.16-2.13s8.41,7.38-4.43,10.91c0,0-13.44-15.33-33.44-13.05,0,0-4.29,.82-6.46,3.15,0,0,15.4-8.51,36.98,10.68,0,0-13.44,4.1-29.92,3.47-16.48-.62-26.39,5.03-26.39,5.03,0,0-9.16,4.47-10.51,6.77s-3,5.65-3,5.65c0,0,13.78-15.93,33.02-14.28,19.24,1.65,38.3-4.73,38.3-4.73l7.4,8.15s-22.33,9.71-44.03,22.48c-21.7,12.78-28.75,21.87-28.75,21.87l-3.11,4.62,.53,.86c.2,.22,.33,.47,.46,.73,.14,.11,.27,.21,.41,.32,.09,.07,.19,.15,.28,.22,.69-2.01,5.26-11.63,32.83-27.26,31.15-17.65,43.3-21.94,43.3-21.94l5.76,10.32s-7.64,2.45-15.75,16.53c-8.11,14.08-13.18,25.67-13.18,25.67,0,0-5.86,13.7-18.16,19.88,.19,.04,.37,.08,.55,.14,.85,0,1.65,.2,2.39,.54l.04-.02s12.08-5.62,19.25-23.61c7.17-18,14.33-26.05,14.33-26.05,0,0,4.54-8.32,11.8-11.22,0,0,16.27,29.17,3.25,48.74l-1.2,2.26c.59-.39,1.18-.78,1.8-1.17,1.53-.98,2.29-2.3,3.91-3.36,.93-1.43,10.25-17.13-5.81-47.46,0,0,16.27-6.07,22.93,11.56v-5.48s-10.35-13.63-23.92-7.84Z"/><g id="e"><path class="l" d="M254.98,127.26l18.54-106.29h78.83l-3.67,20.95h-53.94l-4.51,25.51h46.93l-3.51,19.74h-46.93l-7.01,40.09h-24.72Z"/></g><g id="f"><path class="l" d="M343.14,92.36c0-16.55,13.69-41.3,48.1-41.3,25.22,0,42.59,16.25,42.59,36.9,0,16.55-13.69,41.3-47.93,41.3-25.39,0-42.75-16.25-42.75-36.9Zm67.3-4.4c0-10.48-8.35-18.07-20.21-18.07-14.36,0-23.72,10.93-23.72,22.47,0,10.48,8.35,18.07,20.38,18.07,14.2,0,23.55-10.93,23.55-22.47Z"/></g><g id="g"><path class="l" d="M502.84,126.42l-11.52-75.16h23.05l5.18,52.08,23.38-52.08h21.38l5.34,51.47,22.21-51.47h25.05l-37.24,75.16h-25.38l-5.51-43.73-20.71,43.73h-25.22Z"/></g><g id="h"><path class="l" d="M608.22,93.87c0-24.9,18.2-43.12,43.25-43.12,12.19,0,21.71,5.01,27.39,11.69l1.84-10.17h23.55l-13.03,75.16h-23.21l1.17-7.59c-6.01,5.62-14.53,9.11-25.22,9.11-20.88,0-35.74-14.42-35.74-35.08Zm65.97-6.07c0-10.93-7.85-18.37-19.37-18.37-13.53,0-23.21,10.17-23.21,22.17,0,10.78,7.68,18.52,19.71,18.52,12.86,0,22.88-8.96,22.88-22.32Z"/></g><g id="i"><path class="l" d="M703.94,126.91l13.03-75.16h23.72l-1.84,10.63c7.52-8.35,16.7-12.15,27.89-12.15,1.17,0,2,0,3.34,.15l-3.84,21.11c-2-.3-3.67-.3-5.34-.3-13.86,0-25.22,8.35-27.89,24.45l-5.34,31.28h-23.71Z"/></g><path id="j" class="l" d="M840.45,60.8l8.77-49.1h23.5l-19.96,114.12h-23.22l1.08-7.49s-12.96,13.94-36.99,7.49c-24.04-6.44-23.52-28.48-23.52-28.48h31.3v16.18l30.47-26.34-29.03-24.77v14.01h-30.48s6.36-23.68,34.41-27.19c0,0,21.75-3.51,33.67,11.57Z"/><g id="k"><path class="l" d="M432.31,127.79l13.03-75.16h23.72l-1.84,10.63c7.52-8.35,16.7-12.15,27.89-12.15,1.17,0,2,0,3.34,.15l-3.84,21.11c-2-.3-3.67-.3-5.34-.3-13.86,0-25.22,8.35-27.89,24.45l-5.34,31.28h-23.71Z"/></g><g><path class="n" d="M559.31,181.06l.58-1.44,1.87-2.09c.96-1.58,1.75-2.52,2.38-2.81,.1-.38,.24-.74,.43-1.08,.19-.33,.33-.86,.43-1.58l.65-1.15c.19-.19,.29-.34,.29-.43s-.19-.38-.58-.86l-.36-1.51c0-.38-1.27-1.66-3.82-3.82h-.58l-5.19-2.52-.29-.72-.58-.14-.72,.29h-.14l-2.45-.72c-1.97-.53-3.27-.94-3.89-1.23-.1,.1-.24,.14-.43,.14l-2.88-.65c-.82-.19-1.31-.4-1.48-.61-.17-.22-.58-.43-1.23-.65-.65-.22-1.07-.42-1.26-.61-.19-.19-.58-.29-1.15-.29l-1.8,.43c0-.14-.67-.38-2.02-.72-.19-.48-.34-.72-.43-.72l-2.09,.29c-1.39-.67-2.12-1.01-2.16-1.01-.24,0-1.08-.13-2.52-.4-1.44-.26-2.38-.54-2.81-.83-.43-.29-1.08-.58-1.95-.87l-.43-.43c-.1-.1-.36-.19-.79-.29h-1.3c-.29,0-.68-.24-1.19-.72-.5-.48-1.15-.96-1.95-1.44-.79-.48-1.49-1.24-2.09-2.27-.6-1.03-.92-2.08-.97-3.13-.1-.1-.14-.19-.14-.29l.43-2.31c.43-2.93,1.8-5.64,4.11-8.14,.38-1.3,1.18-2.23,2.38-2.81l.29-1.01c1.39-1.2,2.39-2.16,2.99-2.88,.6-.72,1.29-1.31,2.05-1.77,.77-.46,1.37-.88,1.8-1.26l1.3-.58c-.05-.43,1.02-1.45,3.21-3.06,2.19-1.61,3.9-2.67,5.12-3.17,1.22-.5,2.04-.88,2.45-1.12,.41-.24,1.6-.6,3.57-1.08,.48-1.3,1.25-1.95,2.31-1.95h1.08l1.44-1.44,1.95,.14c.1-.1,.36-.4,.79-.9,.43-.5,1.15-.76,2.16-.76l8.72-2.67h.58l.58,.14c.38,0,.88-.34,1.48-1.01,.6-.67,1.38-1.01,2.34-1.01,.19,0,.55,.19,1.08,.58,0,.1,.05,.14,.14,.14l1.87-.58,2.23,.14,2.81-.72c1.78,0,3.34,.43,4.68,1.3l.14-.29v-.43c0-.82,.46-1.22,1.37-1.22,.38,0,.62,.1,.72,.29l.87,.5h.5c.1,0,.72,.29,1.87,.86,.72-.48,1.18-.72,1.37-.72,.91,0,1.63,.39,2.16,1.15l1.22-.14c.38-.38,.62-.58,.72-.58,.29,0,.67,.38,1.15,1.15l.43,.14h1.8c.1,0,.29,.14,.58,.43l.79,.65c.38,.38,.65,.7,.79,.94,.14,.24,.31,.46,.5,.65,1.25-.53,1.92-.79,2.02-.79,.48,0,.84,.41,1.08,1.22,0,.67,.42,1.33,1.26,1.98,.84,.65,1.26,1.33,1.26,2.05,1.06,.48,1.58,1.25,1.58,2.31l1.37,3.53-.29,1.22c.38,.77,.58,1.2,.58,1.3l-.29,2.67,.29,2.81c0,1.49-.7,2.76-2.09,3.82-.29,0-.76,.2-1.41,.61s-1.02,.61-1.12,.61c-1.25,0-2.08-.3-2.49-.9-.41-.6-.8-1.04-1.19-1.33-.38-.29-.58-.67-.58-1.15,0-1.1,.74-2.18,2.23-3.24,.67,0,1.15-.22,1.44-.65,0-1.01-.22-1.7-.65-2.09-.43-.38-.9-.91-1.4-1.58-.5-.67-1.04-1.21-1.62-1.62-.58-.41-1.04-.92-1.41-1.55-.36-.62-.68-.94-.97-.94l-1.01,.14-2.09-.43c-2.21-.29-4.23-.79-6.05-1.51h-1.44l-3.89-.58c-.67,.29-1.63,.43-2.88,.43l-4.76,.72-1.95-.14c-.14,0-1.47,.41-3.96,1.23l-.72,.14h-1.95c-.1,0-.71,.24-1.84,.72-1.13,.48-2.08,.82-2.85,1.01l-.65,.29c-.1,.1-.24,.14-.43,.14l-1.15-.14-6.34,3.1-1.01-.58c-.82-.38-1.27-.58-1.37-.58-.67,0-1.01,.34-1.01,1.01l-.14,1.37c-.62,.38-1.03,.67-1.23,.86s-.43,.34-.72,.43h-.87c-.58,0-1.12,.25-1.62,.76-.5,.5-.95,.78-1.33,.83s-.94,.26-1.66,.65c-.1,.19-.48,.38-1.15,.58-.67,.19-1.19,.64-1.55,1.33s-.78,1.04-1.26,1.04l-1.44-.29-.79,1.44c-1.01,.24-1.58,.38-1.73,.43-.62,.82-1.25,1.44-1.87,1.87-.62,.43-1.24,.9-1.84,1.41-.6,.5-1.03,1.02-1.3,1.55-.26,.53-.66,.95-1.19,1.26-.53,.31-.98,.95-1.37,1.91l-.72,.72c-1.2,1.01-1.8,2.09-1.8,3.24,0,.82,.58,1.42,1.73,1.8,1.15,.39,1.87,.7,2.16,.94s.72,.36,1.3,.36,1.13,.12,1.66,.36c.53,.24,1.42,.62,2.67,1.15,.24,.77,.48,1.15,.72,1.15,.1,0,.29-.19,.58-.58,.29-.38,.72-.58,1.3-.58,.62,0,1.22,.38,1.8,1.15l.58-.43h.29l.94,.29h.14l.86-.43c.1-.1,.24-.14,.43-.14,.14,0,.89,.24,2.23,.72h.14c.1,0,.48-.1,1.15-.29,.72,.19,1.13,.34,1.22,.43l1.01,.58c0,.14,.1,.22,.29,.22s.48-.11,.86-.32c.38-.22,.74-.32,1.08-.32,.38,0,.81,.26,1.3,.79,.77-.34,1.2-.5,1.3-.5,.43,0,1.17,.36,2.23,1.08l1.37,.29h1.58l2.38,.43c.67,.72,1.37,1.27,2.09,1.66,.1-.53,.43-.79,1.01-.79,.77,0,1.94,.31,3.53,.94l.58,.14,.58,.43c.82-.19,1.32-.29,1.51-.29,.96,0,1.44,.34,1.44,1.01,0,.58-.14,1.32-.43,2.23,.1,0,.24,.1,.43,.29,.24-.29,.5-.48,.79-.58l1.15-.65c.19-.19,.33-.29,.43-.29,1.1,0,2.67,.77,4.68,2.31,2.02,1.54,3.17,3.29,3.46,5.26,0,.58,.19,1.25,.58,2.02l-.29,.94,.14,1.15c0,.1-.1,.43-.29,1.01l-.14,1.08c-.1,.19-.24,.36-.43,.5-.19,.14-.34,.31-.43,.5l.43,1.22v.29c0,.19-.18,.46-.54,.79-.36,.34-.59,.65-.68,.94-.1,.29-.26,.59-.5,.9-.24,.31-.41,.68-.5,1.12-.1,.43-.56,.92-1.4,1.48-.84,.55-1.26,.97-1.26,1.26s.1,.43,.29,.43c.58,0,1.19-.28,1.83-.83,.65-.55,1.14-.88,1.47-.97,.33-.1,.91-.38,1.73-.86l6.76-3.17c5.04-2.4,7.84-3.6,8.42-3.6,.77,0,1.15,.38,1.15,1.15,0,.29-.34,.84-1.01,1.66-.1,2.26-1.08,3.58-2.95,3.96-.72,.48-1.27,.99-1.66,1.51h-.58c-1.2,1.35-2.57,2.02-4.11,2.02h-.43c-1.78,1.78-3.94,2.76-6.48,2.95-1.68,1.68-3.07,2.52-4.18,2.52l-1.15,.29c-1.2,.48-2.04,.72-2.52,.72-.1,0-.29,.19-.58,.58l-1.08,.79c-.91,.19-1.9,.72-2.95,1.58-1.06,.86-1.86,1.36-2.41,1.48-.55,.12-1.14,.32-1.77,.61-.62,.29-3.15,1.92-7.56,4.9l-.94,.29c-1.87,.86-3.05,1.57-3.53,2.12-.48,.55-1.06,1.02-1.73,1.41h-.29c-1.11,0-2.4,.72-3.89,2.16-.1,.24-1.14,.64-3.13,1.19-1.99,.55-3.9,1.41-5.73,2.56-1.15,.29-2.57,.67-4.25,1.15-1.68,.48-2.91,.77-3.67,.86l-5.04,1.08c-1.11,.19-2.38,.48-3.82,.86-.86-.29-1.61-.43-2.23-.43l-1.3,.14c-.19,0-.49-.17-.9-.5-.41-.34-.95-.66-1.62-.97-.67-.31-1.01-1.14-1.01-2.49,0-1.2,1.32-2.39,3.97-3.57,2.64-1.18,4.37-2,5.19-2.49,.38-.53,1.04-.84,1.98-.94,.94-.1,1.74-.38,2.42-.86,.67-.48,1.71-.91,3.1-1.3l2.88-1.51c.14-.1,.26-.14,.36-.14h1.01c.34,0,.84-.26,1.51-.79,.67-.53,1.37-.91,2.09-1.15h.86c.1,0,.24-.12,.43-.36,.19-.24,.62-.55,1.3-.94l.22-.14h.72c.53-.43,1.15-.79,1.88-1.08,.72-.29,1.42-.67,2.09-1.15l5.63-2.16,1.3,.14c.29,0,.66-.23,1.12-.68,.46-.46,1.53-.92,3.21-1.4,.24-.38,.74-.84,1.51-1.37,.77-.53,1.68-1.3,2.74-2.31l1.51-1.37Zm-25.14,18.01l-1.01-.14c-.68,.38-1.34,.6-1.99,.65-.65,.05-1.66,.49-3.03,1.33-1.37,.84-2.95,1.65-4.73,2.41-1.78,.77-2.67,1.27-2.67,1.51,2.36-.29,4.82-.94,7.37-1.95l5.2-1.44c.67-.19,1.14-.38,1.41-.58,.26-.19,.78-.46,1.55-.79l1.16-.87c.24-.1,.77-.29,1.59-.58s1.23-.58,1.23-.86c0-.19-.1-.29-.29-.29-1.73,0-3.11,.26-4.12,.79-1.01,.53-1.57,.79-1.66,.79Z"/><path class="n" d="M593.69,194.97l.79-1.08c.29-.38,.43-.82,.43-1.3l1.73-5.12c.62-1.82,.98-2.83,1.08-3.03l.29-1.44,.87-1.66,.29-1.87c.19-1.39,.89-3.46,2.09-6.2l.14-1.08,.58-1.59v-.29c0-.48-.14-.72-.43-.72h-.58c-.86,0-1.34,.19-1.44,.58l-.5,2.02c0,.72-.43,1.08-1.3,1.08-.1,0-.35-.07-.76-.22-.41-.14-.66-.22-.76-.22-.29,.58-.67,1.3-1.15,2.16-.48,.19-1.27,.7-2.38,1.51l-.72,.14c-.53,.77-1.32,1.56-2.38,2.38l-.29,.43c-.67,1.06-1.61,1.58-2.81,1.58-1.58,0-2.38-1.08-2.38-3.24,0-1.34,.65-2.37,1.94-3.06,1.3-.7,2.14-1.32,2.52-1.87,.38-.55,1.42-1.31,3.1-2.27l.72-1.01c.38-.53,.72-.79,1.01-.79l1.23-.43c.19-.19,.62-.29,1.3-.29l-.14-1.01c0-.29,.6-.6,1.8-.94,.29-.29,.95-.82,1.98-1.58,1.03-.77,2.82-2.83,5.37-6.2,.19-.48,.56-.85,1.12-1.12,.55-.26,1.02-.59,1.41-.97h1.44c.38,0,1.25,.65,2.59,1.95,1.34,1.3,2.02,2.95,2.02,4.97l-2.09,9.29,.14,.65-.14,.58c0,.19,.1,.29,.29,.29s.6-.38,1.23-1.15c.29-.91,.88-1.61,1.77-2.09,.89-.48,1.55-1,1.98-1.55,.43-.55,1.02-1.04,1.77-1.48,.75-.43,1.73-1.14,2.96-2.12,1.23-.98,2.34-1.52,3.36-1.62l.72-.43,.29-1.08c.87-.67,1.8-1.3,2.81-1.87l1.73-1.37c2.07-.67,3.61-1.01,4.62-1.01,.48,0,.91-.19,1.3-.58l1.66,.72c.1,0,.29-.14,.58-.43,0-.1,.1-.14,.29-.14,1.97,0,3.64,.77,5.01,2.31,1.37,1.54,2.06,3.22,2.06,5.04,0,.1-.07,.31-.22,.65-.14,.34-.22,.62-.22,.87l.43,1.15v.14l-1.58,4.11c-.14,.48-.43,1.83-.87,4.03-.91,1.44-1.98,2.81-3.21,4.11s-2.03,2.28-2.41,2.95c.19,.19,.36,.29,.5,.29,.43,0,1.06-.43,1.87-1.3l3.39-2.09,.58,.29c.67-.48,1.37-1.03,2.08-1.66,.72-.62,1.34-.96,1.87-1.01,.29-.38,.79-.87,1.51-1.44l.72-.79c.29,0,.62-.17,1-.5,.38-.33,.83-.55,1.33-.65,.5-.1,1.02-.47,1.54-1.12,.53-.65,.97-1.02,1.33-1.12,.36-.1,.59-.29,.68-.58,1.63-1.63,2.9-2.52,3.81-2.67l.86-.29c.09-.1,.19-.14,.29-.14,.53,0,.93,.5,1.22,1.51l-.94,1.44v.72l.22,.79c0,.48-.29,1.09-.86,1.84-.58,.75-1.22,1.12-1.94,1.12-.82,.39-1.31,.81-1.48,1.26-.17,.46-.88,1.12-2.12,1.98-1.25,.87-2.02,1.62-2.3,2.27s-.7,.97-1.22,.97l-1.3-.43c-1.11,1.44-1.85,2.11-2.23,2.02h-.43l-.29,.14-.86,1.8c-.53,.1-.94,.24-1.22,.43l-.72-.14c-2.93,2.93-4.8,4.39-5.62,4.39l-1.3-.14c-.1,0-.32,.28-.68,.83-.36,.55-.66,.95-.9,1.19s-.55,.6-.94,1.08h-1.51c-.38,0-1.1,.41-2.16,1.22,0,.1-.05,.14-.14,.14l-1.08-.43h-.14c-.48,0-1.1,.38-1.87,1.15l-2.23,.86c0,.1-.05,.14-.14,.14l-1.51-.29c-.29,0-.72,.24-1.3,.72l-.58,.36c-.29,0-.79,.24-1.51,.72l-2.3,.86c-.24-.1-.46-.14-.65-.14l-1.3,.14-1.15-.29c-.24,0-.6,.34-1.08,1.01,0,.1-.1,.14-.29,.14-.1,0-.34-.05-.72-.14h-.86l-1.66,.43c-.38,0-1.07-.38-2.05-1.15-.98-.77-1.62-1.46-1.91-2.09l-.72-1.15c-.67-.29-1.13-.58-1.37-.86l-.58,.29c-.05,.19-.25,.5-.61,.94s-.54,.75-.54,.94c0,.62-.23,1.45-.69,2.49s-1.12,2.87-1.99,5.51l-.94,1.15c-.19,.24-.29,.48-.29,.72,0,.43-.39,1.18-1.16,2.23-.05,1.2-.5,2.4-1.37,3.6l-.29,.72v1.01c0,.29-.48,1.46-1.45,3.53l-.14,1.51c-.29,.05-.78,1-1.48,2.85-.7,1.85-1.53,3.4-2.49,4.65l-.65,2.38-.72,1.3-.43,1.37c-.1,.24-.24,.43-.43,.58l-.14,.72-.43,.29c.1,.72-.36,1.92-1.37,3.6,0,.19-.24,.53-.72,1.01-.48,.48-1.03,1.19-1.66,2.13-.62,.94-1.54,1.79-2.74,2.56l-3.1,1.95c-2.31,0-3.89-1.22-4.76-3.67-.1-.29-.56-1.08-1.4-2.38-.84-1.3-1.26-3.22-1.26-5.76l.65-2.95c.43-2.64,.91-4.3,1.44-4.97l.86-1.95c.1-.39,.26-.76,.5-1.12s.49-.91,.76-1.66c.26-.75,.93-1.45,1.98-2.12,.67-1.54,1.37-2.86,2.09-3.96l1.01-1.95c0-.58,.5-1.2,1.51-1.87,.43-.91,1.03-1.84,1.8-2.77s1.27-1.5,1.51-1.69c.24-.19,.46-.8,.65-1.84,.19-1.03,.61-1.67,1.26-1.91,.65-.24,1.02-.55,1.12-.94l.72-1.22c.48-.38,.95-.98,1.41-1.8,.46-.82,.97-1.34,1.55-1.58,.62-1.15,1.2-1.73,1.73-1.73Zm-16.92,39.84c.24-.14,1.47-2.02,3.67-5.62l.72-1.37c.43-.77,.84-1.39,1.23-1.87l.14-.58c.24-.24,.48-.6,.72-1.08l3.96-10.45c.58-1.54,.95-2.63,1.12-3.28,.17-.65,.83-2.65,1.98-6.02-.29,.1-.58,.44-.86,1.04-.29,.6-.53,.9-.72,.9l-1.08,.14c-.1,0-.48,.87-1.15,2.59l-.29,.36c-.72,.1-1.2,.48-1.44,1.15l-1.22,2.52v1.01c0,1.15-.84,2.23-2.52,3.24-.53,1.39-.87,2.09-1.01,2.09h-.72l.29,1.3c0,1.1-.32,2.05-.97,2.85-.65,.79-.97,1.24-.97,1.33l.14,1.44-.14,1.3c-.58,1.39-.86,3.07-.86,5.04v1.95Zm34.68-48.13l2.52-.43c1.34-.29,2.09-.43,2.23-.43,.1,0,.31,.07,.65,.22,.34,.14,.71,.29,1.12,.43,.41,.14,.85,.67,1.33,1.58,2.35-1.1,3.77-1.9,4.25-2.38,.48-.48,.89-.72,1.23-.72,.1,0,.24,.05,.43,.14,.1-.24,.22-.53,.36-.87,.14-.33,.49-.73,1.04-1.19,.55-.46,1.41-1.5,2.56-3.13l2.38-2.67,2.52-3.67c.62-.96,1.15-2.09,1.58-3.39l.43-.94c.19-.58,.29-.91,.29-1.01,0-.34-.34-1.13-1.01-2.38l-1.8,.79v-.14c-.58-.43-1.06-.65-1.44-.65-.29,0-.55,.18-.79,.54-.24,.36-.59,.59-1.04,.68-.46,.1-.85,.31-1.19,.65-.34,.34-.78,.53-1.33,.58-.55,.05-1.17,.41-1.84,1.08l-.86-.14-.5,.36-.86-.22c-1.01,1.15-1.72,1.86-2.13,2.13-.41,.26-.97,.9-1.69,1.91h-1.01c-.38,0-.75,.53-1.08,1.58-.48,.29-.96,.75-1.44,1.37l-1.8,.72c-.38,.62-.82,1.11-1.3,1.44l-2.81,3.6c-.19,.19-.41,.31-.65,.36-.24,.05-.48,.12-.72,.22l.36,1.44h-.22c-1.15,.62-1.87,1.73-2.16,3.31l-.43,1.73c0,.29,.1,.43,.29,.43s.46-.17,.79-.5c.34-.33,.94-.82,1.8-1.44,.86-.62,1.51-.96,1.95-1.01Z"/><path class="n" d="M690.18,191.58l-3.39,2.95c-.19-.19-.38-.29-.58-.29-.48,0-1.07,.43-1.77,1.3-.7,.86-1.19,1.3-1.48,1.3l-.72-.14c-1.2,.91-2.07,1.44-2.6,1.58-.53,.14-1.17,.41-1.91,.79-.75,.38-1.42,.6-2.02,.65-.6,.05-1.09,.25-1.48,.61-.39,.36-1.32,.54-2.81,.54l-1.15-.14c-.62,.29-1.03,.43-1.22,.43-.38,0-.79-.2-1.23-.61-.43-.41-.9-.64-1.41-.68-.5-.05-1.02-.38-1.55-1.01-.53-.62-1.02-1.06-1.48-1.3-.46-.24-.83-.58-1.12-1.01l-1.01-.87c-.82-.58-1.61-1.63-2.38-3.17-.77-1.54-1.15-2.74-1.15-3.6v-.29l.14-1.37-.14-1.58c.19-.19,.43-.6,.72-1.22v-2.31l1.73-5.76c.1-.24-.1-.55-.58-.94-.48,.72-.96,1.15-1.45,1.3-.48,.14-.81,.48-.98,1.01-.17,.53-.45,.79-.83,.79l-.87-.29c-.1,.1-.32,.59-.65,1.48-.34,.89-.92,1.33-1.74,1.33-.87,0-1.31-.33-1.31-1.01l.14-1.3-.44-1.8c0-.38,.38-1.14,1.16-2.27,.77-1.13,1.48-1.78,2.13-1.94,.65-.17,1.2-.62,1.66-1.37,.46-.74,1.45-1.64,2.99-2.7,.87-.19,1.61-.82,2.24-1.87,.67-.53,1.55-.96,2.63-1.3,1.08-.33,1.9-.83,2.46-1.48,.55-.65,2.19-1.66,4.91-3.03s4.7-2.05,5.95-2.05c.38,0,.91-.11,1.59-.32,.67-.22,1.3-.41,1.88-.58,.58-.17,1.18-.43,1.8-.79,.63-.36,1.13-.54,1.52-.54l2.09,.72c1.54,.43,2.48,.75,2.82,.94,.1,.1,.59,.3,1.48,.61,.89,.31,1.8,.73,2.74,1.26,.94,.53,1.41,1.51,1.41,2.95-.82,1.2-1.23,1.85-1.23,1.95,0,.19,.55,.48,1.66,.87,.38,.72,.96,1.66,1.73,2.81l.79,2.52,.14,5.91-.14,.58c-.53,.48-.79,.79-.79,.94l.22,1.44-.58,2.02c-.14,.62-.38,1.03-.72,1.22-.34,.19-.55,.43-.65,.72l-.43,.58c-.1,.14-.3,.57-.61,1.26-.31,.7-.66,1.24-1.05,1.62-.39,.38-.62,.84-.72,1.37-.1,.53-.34,.91-.72,1.15-.38,.24-.66,.49-.83,.76-.17,.26-.44,.49-.83,.68Zm-22.39,1.87l.29,1.66,.14,.14h1.15l.36,.14c.96,.19,1.68,.29,2.16,.29,1.49,0,2.67-.37,3.56-1.12,.89-.74,1.59-1.12,2.12-1.12s.97-.36,1.33-1.08c.36-.72,.59-1.08,.68-1.08h1.01l.29-.14c0-1.1,.49-1.9,1.47-2.38,.98-.48,1.68-1.12,2.08-1.91,.41-.79,.88-1.39,1.4-1.8,.53-.41,.89-.95,1.08-1.62l.58-.86c.19-.19,.29-.55,.29-1.08l1.37-2.59c.29-1.2,.43-2.14,.43-2.81,0-1.01-.52-1.8-1.55-2.38-1.03-.58-1.55-1.7-1.55-3.39,0-1.1,.56-2.12,1.69-3.06s1.69-1.5,1.69-1.69c0-.29-.14-.43-.43-.43-.14,0-.7,.19-1.65,.58-.34,.67-2.04,1.56-5.1,2.67-1.01-.48-1.56-.72-1.65-.72-.29,0-.58,.29-.86,.86-.29,.58-.58,.99-.86,1.22h-.93c-.1,0-.41,.31-.93,.94-.53,.62-1.2,.94-2.01,.94l-.86,.87c.05,.77-.43,1.56-1.44,2.38l-.79,.94c-.48,.58-1.1,1.25-1.87,2.02l-1.29,3.24c-.53,1.25-.79,2.19-.79,2.81-.14,.29-.47,.59-.97,.9-.5,.31-.76,.71-.76,1.19,0,.1,.17,.34,.5,.72,.33,.38,.5,.67,.5,.86l-.29,.94-.29,2.67,.72,2.31Z"/><path class="n" d="M719.57,164.13l1.08-.29,.43-.94c2.35-1.39,4.04-2.71,5.04-3.96,.1-.19,.31-.38,.65-.58,.33-.19,.7-.53,1.08-1.01,1.78-1.78,3.89-2.67,6.34-2.67,2.88,0,4.42,1.75,4.61,5.26l.43,1.08c.38,.67,.92,2.04,1.62,4.11,.7,2.07,1.04,3.34,1.04,3.82,0,1.3-.41,2.59-1.22,3.89-.67,.34-2.28,2.14-4.83,5.4l-.72,.5c-.38,.87-.89,1.73-1.51,2.59-.96,.34-1.44,.7-1.44,1.08v1.3c0,.1-.11,.29-.32,.58s-.52,.84-.9,1.66l-.58,.86c-.19,.19-.39,.59-.58,1.19-.19,.6-.47,1.14-.83,1.62-.36,.48-.54,.86-.54,1.15,0,.72,.94,1.08,2.81,1.08,.1,0,.46-.14,1.08-.43l1.01,.29c.1,0,.34-.16,.72-.47,.38-.31,.97-.56,1.77-.76,.79-.19,1.49-.48,2.09-.86,.6-.38,1.32-.72,2.16-1.01,.84-.29,1.65-.76,2.41-1.41,.77-.65,1.52-1.12,2.27-1.4,.74-.29,1.44-.73,2.09-1.33s1.38-1.16,2.2-1.69c.82-.53,2.11-1.68,3.89-3.46,1.15-.91,1.94-1.42,2.38-1.51,.1,0,.52-.64,1.26-1.91,.74-1.27,1.6-1.91,2.56-1.91,1.01,0,1.51,.48,1.51,1.44,0,.53-.24,1.03-.72,1.51v.43l.14,1.15c.1,.14,.14,.36,.14,.65,0,.19-.18,.48-.54,.86-.36,.39-.61,.88-.76,1.48-.14,.6-.6,1-1.37,1.19-.29,1.06-.66,1.66-1.12,1.8-.46,.14-1.09,.62-1.91,1.44s-1.97,1.78-3.46,2.88c-1.49,1.11-2.51,1.96-3.06,2.56-.55,.6-.92,.9-1.12,.9-.1,0-.29-.1-.58-.29-.29-.19-.48-.29-.58-.29-.29,0-.48,.34-.58,1.01l-.29,.72c-.62,.38-.99,.58-1.08,.58l-.43-.14h-.29c-.58,0-.87,.22-.87,.65l.43,.72v.14c0,.67-.38,1.01-1.15,1.01-.53,0-2.07,.89-4.61,2.67l-2.09,.43-1.73,.94c-.58-.34-.94-.5-1.08-.5l-1.15,.36-2.09,.14s-.92-.48-2.63-1.44c-1.7-.96-2.73-1.92-3.06-2.88-.34-.96-.77-1.93-1.3-2.92-.53-.98-.79-1.67-.79-2.05,0-2.31,.19-3.95,.58-4.94,.38-.98,.62-1.72,.72-2.2,.1-.48,.37-1,.83-1.55,.46-.55,.83-1.45,1.12-2.7,1.39-2.79,2.35-4.49,2.88-5.12,.53-.62,.94-1.39,1.23-2.31l.94-1.3c.1-.1,.24-.47,.43-1.12,.19-.65,.43-1.02,.72-1.12,.38-.67,.58-1.1,.58-1.3,0-1.39-.62-2.09-1.87-2.09-.24,0-.5,.25-.79,.76-.29,.5-.95,1-1.98,1.48-1.03,.48-1.67,.84-1.91,1.08s-.76,.54-1.55,.9c-.79,.36-1.48,.93-2.05,1.69l-1.23,.58c-.38,.91-.72,1.42-1.01,1.51-.29,.1-1.18,.34-2.67,.72-.1,.05-.34,.34-.72,.86-.39,.53-.94,.79-1.66,.79-.58,.58-1.15,1.25-1.73,2.02-.19,0-.7,.19-1.51,.58l-1.44,.36c-.38,.29-.8,.75-1.26,1.37-.46,.62-1.31,.94-2.56,.94-.72,0-1.08-.58-1.08-1.73,0-2.35,.83-4.23,2.49-5.62,1.66-1.39,2.87-2.14,3.64-2.23,.77-.1,1.25-.38,1.44-.87,.19-.48,.66-.88,1.4-1.19,.74-.31,1.61-1.01,2.59-2.09,.98-1.08,2.05-1.81,3.21-2.2l.86-1.01Z"/><path class="n" d="M779.84,134.01l1.01-.29,.72-.72h.14l.65,.29h.14c1.15,0,2.18-.23,3.07-.68,.89-.46,1.65-.78,2.25-.97,.61-.19,.98-.33,1.13-.43,.14-.1,.27-.14,.36-.14l1.17,.14c.38,0,.9-.68,1.55-2.05,.65-1.37,1.38-2.37,2.2-2.99,.82-.62,1.63-1.8,2.45-3.53,.19-.24,.41-.61,.65-1.12,.24-.5,.43-.76,.58-.76,.72,0,1.29-.46,1.73-1.37,1.44-1.68,2.62-2.52,3.53-2.52,1.2,0,2.04,1.15,2.52,3.46l.72,2.74s-.12,.4-.36,1.04c-.24,.65-.35,1.3-.32,1.95,.02,.65,0,1.08-.07,1.3-.07,.22-.11,.47-.11,.76,0,.39,.41,.58,1.22,.58,.29,0,.82-.19,1.59-.58l.43-.14c.48,.29,.89,.43,1.22,.43,.1,0,.78-.24,2.05-.72,1.27-.48,2.08-.74,2.41-.79,.33-.05,.91-.24,1.73-.58h.87l.58,.22c.19,0,.59-.2,1.19-.61,.6-.41,1.74-.66,3.42-.76l1.01-.43h.29c1.58,0,2.38,.7,2.38,2.09,0,.29-.23,.79-.68,1.51-.46,.72-.83,1.54-1.12,2.45l-3.31,4.18c-1.11,1.44-2.21,2.16-3.31,2.16-.19,0-.79-.65-1.8-1.95,0-.1-.1-.14-.29-.14-.48,0-.99,.1-1.51,.29-.53,.19-.96,.29-1.3,.29-.14,0-1.42,.36-3.82,1.08l-1.73,.29c-.19,0-.65,.1-1.37,.29l-3.68,.72c-1.25,.62-2.24,1.8-2.96,3.53,0,.1-.24,.31-.72,.65l-3.25,5.91c-1.06,.29-1.76,.91-2.09,1.87l-.29,.43c-.53,.1-1.01,.4-1.44,.9-.43,.5-.84,.9-1.23,1.19l-1.3,1.95c-.53,.67-1.06,1.41-1.59,2.2-.53,.79-.91,1.63-1.16,2.52-.24,.89-.43,1.4-.58,1.55-.14,.14-.22,.41-.22,.79l-.22,.58c-.58,.58-.87,1.22-.87,1.95l.29,1.15c-.67,2.31-1.01,3.53-1.01,3.67,0,.1,.05,.36,.14,.79v.43c0,1.06-.38,2.38-1.16,3.96l.15,1.15-.43,3.24c0,.43,.14,1.23,.43,2.38-.19,.19-.29,.34-.29,.43,0,1.34,.71,2.82,2.13,4.43,1.42,1.61,2.13,4.12,2.13,7.53,0,.29-.07,.71-.22,1.26-.14,.55-.24,1.15-.29,1.8-.05,.65-.42,1.29-1.12,1.91s-1.29,.94-1.77,.94c-2.55,0-4.45-1.85-5.7-5.55-1.25-3.7-1.88-6.08-1.88-7.13l.14-2.81-.43-1.44,.43-6.34-.29-1.51,1.66-6.2v-2.23c0-.1,.34-.48,1.01-1.15,0-.1-.1-.14-.29-.14-.29,0-.67,.29-1.15,.86-.48,.58-1.08,1.13-1.8,1.66l-.58,1.01c-.1-.1-.29-.19-.58-.29-.24,.1-1.03,1.22-2.38,3.39-1.01,.14-1.8,.72-2.38,1.73-.58,1.01-1.37,1.51-2.38,1.51l-.29,.14c-.19,1.39-.87,2.09-2.02,2.09l-.29,.14c-.72,1.63-1.47,2.43-2.24,2.38-.48,1.44-1.66,2.43-3.54,2.95-.29,.58-.71,1.01-1.26,1.3-.55,.29-.95,.55-1.19,.79-.24,.24-.46,.36-.65,.36-.62,0-.94-.67-.94-2.02,0-.38,.16-.8,.47-1.26,.31-.46,.47-.78,.47-.97,0-.1-.24-.38-.72-.86,0-1.49,.38-2.42,1.15-2.81,.77-.38,1.35-.94,1.73-1.66,.24-.58,.72-.98,1.44-1.22,.72-.24,1.08-.55,1.08-.94,0-.34,.62-1.01,1.88-2.02,1.25-1.01,2.16-1.88,2.74-2.63,.58-.74,1.06-1.12,1.44-1.12l.29-.29c.1-1.2,.55-1.8,1.37-1.8l.72-.43,.15-.58,.43-.29h.58l.36-.29c.1-1.2,.66-2.14,1.69-2.81,1.03-.67,2.92-2.56,5.66-5.66,2.74-3.1,4.28-5.08,4.62-5.94s.95-2.03,1.84-3.49c.89-1.46,1.38-2.85,1.48-4.14-.1-.19-.24-.38-.43-.58l-3.1,1.51c0-.14-.48-.36-1.44-.65-.72,.43-1.25,.86-1.58,1.3-.34,.43-.6,.65-.79,.65l-1.01-.14-3.17,.36c-2.83,.24-4.97,.82-6.41,1.73l-2.95,.86h-.65c-.38,0-.96,.24-1.73,.72l-1.66-.14c-1.54,.82-2.67,1.22-3.39,1.22-.1,0-.38-.05-.87-.14l-7.35,2.02c-.58,.19-1.87,1.18-3.89,2.95l-.58,.14c-.48,0-1.04-.54-1.69-1.62s-.97-2.05-.97-2.92c0-4.75,4.08-7.52,12.25-8.29l2.95-1.15h.14l.79,.29h.29c.29,0,.75-.18,1.37-.54,.62-.36,2.02-.8,4.18-1.33l2.95-.79,.94,.14c.48,0,1.02-.19,1.62-.58,.6-.38,1.51-.66,2.74-.83,1.22-.17,2.08-.35,2.56-.54l1.15-.29c.19,0,.59-.17,1.19-.5,.6-.33,1.38-.5,2.34-.5,.14,0,.5,.1,1.08,.29Z"/><path class="n" d="M811.23,164.71l1.01-1.8c.29-.43,.66-.88,1.12-1.33,.46-.46,.95-1.63,1.48-3.53,.53-1.9,1.12-3.21,1.77-3.93s1.6-1.08,2.85-1.08c.72,0,1.67,.35,2.85,1.04,1.18,.7,2.33,2.8,3.46,6.3,1.13,3.51,1.7,5.98,1.7,7.42,0,.58,.17,1.31,.5,2.2,.34,.89,.55,1.57,.65,2.05-.38,.82-.58,1.27-.58,1.37l.14,2.95-.87,2.38v1.73c-.58,.96-.86,1.56-.86,1.8,0,.29,.1,.58,.29,.87,2.25-.96,3.62-1.74,4.1-2.34,.48-.6,.95-.97,1.4-1.12,.46-.14,1.21-.77,2.27-1.87l1.37-.72c.48-.58,.89-1.09,1.22-1.55,.34-.46,.73-.78,1.19-.97,.46-.19,.99-.53,1.62-1.01,.62-.48,1.53-1.03,2.73-1.66l.72-.86c.72-.82,1.57-1.46,2.55-1.95,.98-.48,1.52-.72,1.62-.72,.34,0,.68,.45,1.04,1.33,.36,.89,.54,1.77,.54,2.63,0,.82-.47,1.62-1.4,2.41-.94,.79-1.57,1.38-1.91,1.76-.34,.38-1.1,.72-2.3,1.01-.1,.05-.89,1.03-2.38,2.95l-1.44,.86-.72,.94c-.1,.19-.74,.39-1.94,.58-.05,0-.16,.24-.32,.72-.17,.48-.68,.82-1.55,1.01-1.73,1.58-2.62,2.47-2.66,2.67l-1.51,.29c-.29,.91-.53,1.47-.72,1.66-1.15,.29-1.8,.77-1.94,1.44-.14,.1-.38,.19-.72,.29l-.29,.22c-1.1,.87-2.18,1.39-3.24,1.58l-1.65,.43-.58,.86c0,.24-.59,.55-1.76,.94-1.18,.39-2.05,.87-2.63,1.44l-1.22,.94c-1.49,.58-2.42,1.11-2.81,1.58h-1.01c-.67,0-1.73,.49-3.17,1.48-1.44,.98-2.59,1.48-3.46,1.48-2.78,0-4.69-.35-5.72-1.04-1.03-.7-1.88-1.56-2.55-2.59-.67-1.03-1.28-1.86-1.84-2.49-.55-.62-.83-1.13-.83-1.51,0-.34,.23-.67,.68-1.01,.46-.34,.95-1.02,1.48-2.05,.53-1.03,1.87-1.69,4.03-1.98,.1,0,.44-.14,1.04-.43,.6-.29,1.09-.43,1.47-.43,.48,0,1.08,.43,1.8,1.3,0,.1,.1,.14,.29,.14l1.15-.14c.53,.38,.89,.58,1.08,.58,1.15,0,2.38-.58,3.67-1.73l.29-.14h.58c.14,0,.38-.41,.72-1.22l1.22-2.52,2.52-3.24v-.72c0-.14,.14-.58,.43-1.3v-1.08c0-.43,.29-.71,.86-.83,.58-.12,.86-.42,.86-.9l-.14-.58c-.38-.53-.58-.94-.58-1.22l.72-1.44-.14-1.51,.29-.58c-.19-.67-.29-1.06-.29-1.15l.29-1.8s-.13-.5-.4-1.37-.47-1.3-.61-1.3c-.29,0-1.2,.75-2.74,2.23-1.54,1.49-2.45,2.55-2.74,3.17-.29,.62-.9,1.19-1.84,1.69-.94,.5-1.57,1.07-1.91,1.69-.34,.62-.75,.99-1.23,1.08l-4.83,3.89-5.27,3.89c-.38,.43-.62,.65-.72,.65-1.78,0-2.67-.98-2.67-2.95,0-.62,.36-1.75,1.08-3.39,.34-.19,.59-.33,.76-.43,.17-.1,.25-.17,.25-.22s-.05-.07-.14-.07l.43,.29h.14c1.78-1.2,2.93-1.9,3.46-2.09,.53-.19,1.01-.72,1.44-1.58l3.03-2.16c.77-.58,1.95-1.63,3.53-3.17,1.59-1.54,2.6-2.67,3.03-3.39Z"/></g></g></g></svg>