<?xml version="1.0" encoding="UTF-8"?><svg xmlns="http://www.w3.org/2000/svg" viewBox="0 0 872.72 265.36"><defs><style>.l{fill:#fff;}.m{stroke:#000;stroke-miterlimit:10;}.n{fill:#db7b07;font-family:RageItalic, Rage Italic;font-size:147.56px;}.o{fill:#db7c0e;}</style></defs><g id="a"/><g id="b"><g id="c"><g id="d"><path class="l" d="M0,70.38C0,35.64,30.09,0,77.21,0c26.93,0,48.11,11.16,59.59,30.42l-23.16,14.4c-7.92-12.6-20-19.98-38.61-19.98-29.1,0-45.93,23.4-45.93,45.54s15.64,36.18,39.4,36.18c16.04,0,27.12-5.94,33.06-13.5l2.18-12.6h-29.7l3.76-21.6h58.01l-7.72,44.1c-12.67,17.28-32.87,28.44-61.97,28.44C30.69,131.4,0,108.36,0,70.38Z"/></g><ellipse class="o" cx="196.58" cy="78.41" rx="55.05" ry="47.56" transform="translate(-8.03 24.33) rotate(-6.94)"/><ellipse class="m" cx="196.68" cy="78.86" rx="52.77" ry="43.85" transform="translate(-12.27 43.61) rotate(-12.27)"/><path class="o" d="M227.87,65.85l-5.87-9.47s12.41-4.52,19.41-4.28l-1.42-2.29s-8.45,.8-19.2,4.94l-6.1-7.91s11.12-2.11,7.31-9.86l-4.81-1.99s7.85,6.89-4.13,10.18c0,0-12.54-14.3-31.2-12.17,0,0-4,.76-6.03,2.94,0,0,14.36-7.94,34.5,9.96,0,0-12.54,3.82-27.91,3.24-15.37-.58-24.62,4.7-24.62,4.7,0,0-8.55,4.17-9.8,6.31s-2.79,5.28-2.79,5.28c0,0,12.86-14.86,30.81-13.33,17.95,1.54,35.73-4.42,35.73-4.42l6.9,7.61s-20.83,9.05-41.08,20.97c-20.25,11.92-26.82,20.4-26.82,20.4l-2.9,4.31,.5,.8c.18,.2,.31,.44,.43,.68,.13,.1,.25,.2,.38,.3,.09,.07,.17,.14,.26,.21,.64-1.87,4.91-10.85,30.63-25.43,29.06-16.47,40.39-20.47,40.39-20.47l5.37,9.63s-7.13,2.29-14.7,15.42c-7.57,13.13-12.3,23.95-12.3,23.95,0,0-5.47,12.78-16.95,18.55,.18,.03,.35,.07,.51,.13,.79,0,1.54,.18,2.23,.5l.04-.02s11.27-5.24,17.96-22.03c6.69-16.79,13.37-24.3,13.37-24.3,0,0,4.23-7.76,11-10.47,0,0,15.18,27.22,3.03,45.47l-1.12,2.11c.55-.36,1.1-.73,1.68-1.09,1.43-.91,2.14-2.14,3.64-3.14,.86-1.33,9.56-15.98-5.42-44.28,0,0,15.18-5.66,21.4,10.79v-5.11s-9.66-12.72-22.31-7.31Z"/><g id="e"><path class="l" d="M254.98,127.26l18.54-106.29h78.83l-3.67,20.95h-53.94l-4.51,25.51h46.93l-3.51,19.74h-46.93l-7.01,40.09h-24.72Z"/></g><g id="f"><path class="l" d="M343.14,92.36c0-16.55,13.69-41.3,48.1-41.3,25.22,0,42.59,16.25,42.59,36.9,0,16.55-13.69,41.3-47.93,41.3-25.39,0-42.75-16.25-42.75-36.9Zm67.3-4.4c0-10.48-8.35-18.07-20.21-18.07-14.36,0-23.72,10.93-23.72,22.47,0,10.48,8.35,18.07,20.38,18.07,14.2,0,23.55-10.93,23.55-22.47Z"/></g><g id="g"><path class="l" d="M502.84,126.42l-11.52-75.16h23.05l5.18,52.08,23.38-52.08h21.38l5.34,51.47,22.21-51.47h25.05l-37.24,75.16h-25.38l-5.51-43.73-20.71,43.73h-25.22Z"/></g><g id="h"><path class="l" d="M608.22,93.87c0-24.9,18.2-43.12,43.25-43.12,12.19,0,21.71,5.01,27.39,11.69l1.84-10.17h23.55l-13.03,75.16h-23.21l1.17-7.59c-6.01,5.62-14.53,9.11-25.22,9.11-20.88,0-35.74-14.42-35.74-35.08Zm65.97-6.07c0-10.93-7.85-18.37-19.37-18.37-13.53,0-23.21,10.17-23.21,22.17,0,10.78,7.68,18.52,19.71,18.52,12.86,0,22.88-8.96,22.88-22.32Z"/></g><g id="i"><path class="l" d="M703.94,126.91l13.03-75.16h23.72l-1.84,10.63c7.52-8.35,16.7-12.15,27.89-12.15,1.17,0,2,0,3.34,.15l-3.84,21.11c-2-.3-3.67-.3-5.34-.3-13.86,0-25.22,8.35-27.89,24.45l-5.34,31.28h-23.71Z"/></g><path id="j" class="l" d="M840.45,60.8l8.77-49.1h23.5l-19.96,114.12h-23.22l1.08-7.49s-12.96,13.94-36.99,7.49c-24.04-6.44-23.52-28.48-23.52-28.48h31.3v16.18l30.47-26.34-29.03-24.77v14.01h-30.48s6.36-23.68,34.41-27.19c0,0,21.75-3.51,33.67,11.57Z"/><g id="k"><path class="l" d="M432.31,127.79l13.03-75.16h23.72l-1.84,10.63c7.52-8.35,16.7-12.15,27.89-12.15,1.17,0,2,0,3.34,.15l-3.84,21.11c-2-.3-3.67-.3-5.34-.3-13.86,0-25.22,8.35-27.89,24.45l-5.34,31.28h-23.71Z"/></g><text class="n" transform="translate(492.83 204.84)"><tspan x="0" y="0">Sports</tspan></text></g></g></svg>