<?xml version="1.0" encoding="UTF-8"?><svg id="a" xmlns="http://www.w3.org/2000/svg" viewBox="0 0 25.37 21.97"><defs><style>.j{fill:#db7b07;}</style></defs><path id="b" class="j" d="M10.83,21.92s5.49,.68,10.22-3.32c0,0,1.63-3.96-1.32-9.23,0,0-2.15,.46-5.34,7.35,0,0-1.36,3.72-3.56,5.2Z"/><path id="c" class="j" d="M21.02,9.13s2.84-1.13,4.34,1.77c0,0,.23,3.07-2.63,6.18,0,0,.82-3.44-1.72-7.95Z"/><path id="d" class="j" d="M19.15,5.64s1.76-.72,4.11-.94c0,0,1.63,2.06,1.79,4.29,0,0-2.01-2.33-4.61-1.28l-1.29-2.07Z"/><path id="e" class="j" d="M17.28,3.15l1.32,1.71s2.2-.88,3.91-1.04c0,0-1.26-1.42-3.5-2.4,0,0,.42,1.22-1.72,1.73Z"/><path id="f" class="j" d="M12.97,.05s2.14-.32,5,.63c0,0,.7,1.24-1.36,1.72,0,0-1.47-1.63-3.64-2.35Z"/><path id="g" class="j" d="M2.31,4.87S5.34,.87,10.8,.24c0,0,2.27,.62,4.18,2.42,0,0-3.29,.91-6.69,.72s-5.98,1.49-5.98,1.49Z"/><path id="h" class="j" d="M1.58,6.35s2.37-2.26,6.52-1.88c4.15,.37,7.74-1.07,7.74-1.07l1.62,1.78S3.45,11.24,1.08,15.58c0,0-2.74-4,.5-9.22Z"/><path id="i" class="j" d="M1.73,16.56s2.44,4.23,7.91,4.7c0,0,2.19-1.31,3.83-5.36,0,0,3.11-6.9,5.31-7.26l-1.21-2.17S4.49,12.02,1.73,16.56Z"/></svg>